<svg width="333" height="385" viewBox="0 0 333 385" fill="none" xmlns="http://www.w3.org/2000/svg">
<path fill-rule="evenodd" clip-rule="evenodd" d="M167.178 0C176.453 5.5825 185.658 11.2875 195.003 16.73C239.365 42.455 283.728 68.145 328.143 93.765C331.065 95.445 332.36 97.3175 332.36 100.905C332.273 162.015 332.29 223.125 332.5 284.235C332.5 288.225 330.68 289.887 327.775 291.567C274.978 322.122 222.215 352.73 169.453 383.338C168.648 383.81 167.93 384.44 167.178 385H165.253C149.328 375.62 133.403 366.153 117.425 356.86C79.7302 334.968 42.0002 313.11 4.23522 291.358C1.03272 289.52 -0.0172854 287.42 0.00021457 283.745C0.175215 223.125 0.210217 162.505 0.0877166 101.868C0.0877166 97.5275 1.57522 95.34 5.14522 93.2925C57.4527 63.1225 109.673 32.8475 161.91 2.5725C163.118 1.8725 164.15 0.8575 165.253 0H167.178ZM216.283 305.9C223.51 310.852 230.58 316.05 237.86 321.3C238.263 321.125 238.858 320.88 239.4 320.583C263.025 306.915 286.703 293.282 310.258 279.457C311.658 278.635 312.883 276.22 312.883 274.557C313.005 219.852 312.988 165.165 312.83 110.477C312.751 109.526 312.465 108.602 311.994 107.771C311.523 106.94 310.877 106.222 310.1 105.665C286.825 91.98 263.428 78.54 240.135 64.9075C237.72 63.5075 236.373 63.9275 234.325 65.52C228.673 69.9475 173.093 103.898 151.323 116.97C134.313 127.155 117.688 137.9 104.528 153.195C86.3802 174.282 84.6827 203.507 100.555 226.432C108.413 237.807 118.895 246.452 130.13 254.135C139.09 260.242 148.33 265.913 157.43 271.775C157.185 272.125 157.045 272.475 156.8 272.615C144.795 279.58 132.825 286.615 120.68 293.387C119.508 294.035 117.075 293.387 115.745 292.547C102.843 284.221 91.0064 274.347 80.5002 263.148C50.2252 231.403 44.0652 179.375 66.1502 141.418C76.3226 123.907 90.47 109.034 107.45 98C129.5 83.58 190.925 47.1275 199.063 42.14C198.363 41.23 198.17 40.74 197.803 40.5125C188.143 34.8775 178.553 29.1375 168.753 23.765C167.318 22.9775 164.71 23.275 163.153 24.08C157.763 26.8625 152.6 30.065 147.368 33.1275C142.748 35.8225 138.145 38.5525 132.843 41.685L158.008 57.505C145.145 65.1 132.983 72.38 120.68 79.4325C119.7 79.9925 117.6 79.555 116.533 78.82C110.44 74.7198 104.498 70.4003 98.7177 65.87C96.1802 63.8575 94.5002 63.665 91.6652 65.3275C68.7788 78.7109 45.8302 91.9877 22.8202 105.157C20.2827 106.61 19.4602 108.308 19.4602 111.248C19.5477 165.463 19.5302 219.678 19.4427 273.875C19.4427 276.78 20.1952 278.495 22.8027 280C45.6577 293.09 68.4427 306.32 91.1752 319.637C93.6952 321.125 95.3752 321.055 97.9127 319.358C114.223 308.455 188.843 261.677 209.58 248.78C213.098 246.592 216.055 243.46 219.24 240.765L218.715 239.54H141.26C149.135 225.855 156.485 212.94 164.098 200.182C164.798 199.027 167.37 198.537 169.085 198.537C204.208 198.45 239.348 198.485 274.47 198.485C275.87 198.485 277.27 198.643 278.968 198.73C279.055 200.393 279.44 201.88 279.125 203.175C276.815 212.783 275.275 222.705 271.775 231.875C263.48 253.68 248.098 270.445 229.355 283.36C208.88 297.447 143.693 335.86 132.633 342.458C133.158 343.385 133.228 343.77 133.455 343.91C140.193 347.883 147.42 351.207 153.563 355.967C162.4 362.792 170.1 362.757 178.938 355.967C185.308 351.085 192.763 347.638 200.48 343.105L174.86 327.092C175.56 326.48 175.963 325.99 176.47 325.693C188.195 318.885 199.92 312.043 211.75 305.393C212.87 304.78 215.145 305.112 216.283 305.9ZM266.928 142.502C272.965 153.212 277.463 166.985 278.128 177.607C266.263 177.607 254.818 177.678 243.355 177.52C242.305 177.503 240.66 176.295 240.328 175.28C234.728 157.99 222.775 145.705 208.653 135.38C198.625 128.048 187.95 121.59 177.573 114.73C176.698 114.17 175.84 113.557 174.423 112.577C176.785 111.16 178.623 110.022 180.513 108.92C190.173 103.32 199.763 97.5975 209.563 92.2075C211.313 91.2275 214.463 90.6325 215.88 91.56C236.355 105.018 254.643 120.732 266.928 142.502Z" fill="#6747ED"/>
</svg>
